<svg width="150" height="109" viewBox="0 0 150 109" fill="none" xmlns="http://www.w3.org/2000/svg">
<g clip-path="url(#clip0_6165_56258)">
<path d="M117.892 9.75427C117.514 6.9751 117.038 3.99126 115.078 1.98503C114.456 1.34846 113.712 0.844436 112.89 0.50334C112.068 0.162243 111.185 -0.00885794 110.295 0.000353072C109.405 0.00956409 108.526 0.198898 107.712 0.556936C106.897 0.914974 106.163 1.4343 105.554 2.08361C104.127 3.6058 103.497 5.74318 103.44 7.82877C103.382 9.91435 103.847 11.9768 104.362 13.9986C107.089 14.053 109.795 13.5203 112.298 12.4364C112.912 12.137 113.548 11.8872 114.201 11.6894C114.862 11.5211 115.334 11.9446 115.949 12.2399L116.286 11.5934C116.563 12.1077 117.419 11.9553 117.729 11.4607C118.039 10.9662 117.971 10.3328 117.892 9.75427Z" fill="#2F2E41"/>
<path d="M106.503 21.4887L107.293 17.4554L101.372 14.8924L90.7886 9.82185C90.7149 9.35135 90.5 8.91433 90.1725 8.5686C89.8449 8.22287 89.4201 7.98472 88.9543 7.88567C88.4885 7.78661 88.0036 7.83131 87.5637 8.01385C87.1238 8.19638 86.7497 8.50816 86.4909 8.90794C86.232 9.30772 86.1007 9.77665 86.1142 10.2527C86.1276 10.7288 86.2853 11.1895 86.5664 11.574C86.8474 11.9585 87.2385 12.2486 87.688 12.406C88.1375 12.5633 88.6242 12.5805 89.0837 12.4552L99.1611 18.6743L106.503 21.4887Z" fill="#FFB8B8"/>
<path d="M102.529 20.8063L106.817 16.423L106.902 16.4488C106.955 16.4649 112.282 18.089 115.679 19.7395C116.063 19.9118 116.404 20.1657 116.68 20.4837C116.955 20.8016 117.158 21.1758 117.275 21.5802C117.444 22.1465 117.444 22.7498 117.274 23.3161C117.105 23.8823 116.775 24.3869 116.323 24.7678C115.859 25.1836 115.284 25.4568 114.669 25.5548C114.053 25.6528 113.422 25.5714 112.852 25.3205L102.529 20.8063Z" fill="#6CC24A"/>
<path d="M102.516 40.0773L114.573 43.2992L117.008 31.909L105.941 28.4835L102.516 40.0773Z" fill="#FFB8B8"/>
<path d="M115.923 36.9858L104.144 34.2771L101.889 28.8105C101.705 28.0302 101.75 27.2136 102.017 26.4579C102.284 25.7022 102.763 25.0393 103.397 24.548L107.7 20.9148L110.007 17.9678L109.756 16.4061C109.711 16.0939 109.777 15.7759 109.941 15.507C110.106 15.238 110.359 15.035 110.658 14.9331L113.732 13.8305C114.072 13.7034 114.448 13.7102 114.783 13.8495C115.118 13.9889 115.388 14.2503 115.537 14.581L115.863 15.335C115.863 15.335 117.253 15.9893 118.037 16.3573C118.44 16.5407 118.801 16.8072 119.094 17.1394C119.387 17.4716 119.607 17.862 119.739 18.285C120.938 22.1623 120.615 26.3511 118.834 29.9983L115.923 36.9858Z" fill="#6CC24A"/>
<path d="M11.1727 95.0154L5.47773 93.4914C4.64036 90.5107 4.54328 87.3706 5.19491 84.3438C7.67946 89.2551 14.3522 90.1811 18.3052 94.0111C19.5289 95.2151 20.466 96.679 21.0471 98.2944C21.6281 99.9098 21.8382 101.635 21.6618 103.343L23.026 107.295C20.2569 107.186 17.5444 106.477 15.0755 105.218C12.6065 103.96 10.4398 102.181 8.72467 100.004C7.77456 98.773 6.9832 97.4276 6.36929 95.9991C8.7523 95.65 11.1727 95.0154 11.1727 95.0154Z" fill="#F2F2F2"/>
<path d="M81.9262 108.406H26.108C24.612 108.404 23.1779 107.809 22.1201 106.751C21.0623 105.693 20.4673 104.259 20.4656 102.763V28.8535C20.4673 27.3576 21.0623 25.9234 22.1201 24.8657C23.1779 23.8079 24.612 23.2129 26.108 23.2112H81.9262C83.4222 23.2129 84.8563 23.8079 85.9141 24.8657C86.9719 25.9234 87.5669 27.3576 87.5686 28.8535V102.763C87.5669 104.259 86.9719 105.693 85.9141 106.751C84.8563 107.809 83.4222 108.404 81.9262 108.406Z" fill="#E6E6E6"/>
<path d="M60.622 103.831H30.0315C28.6695 103.829 27.3636 103.287 26.4005 102.324C25.4373 101.361 24.8956 100.055 24.894 98.6932V32.9236C24.8956 31.5616 25.4373 30.2557 26.4005 29.2926C27.3636 28.3294 28.6695 27.7877 30.0315 27.7861H78.0026C79.3647 27.7877 80.6705 28.3294 81.6337 29.2926C82.5968 30.2557 83.1386 31.5616 83.1401 32.9236V81.3127C83.1334 87.2828 80.7588 93.0065 76.5373 97.228C72.3158 101.449 66.5921 103.824 60.622 103.831Z" fill="white"/>
<path d="M73.2172 40.4127H34.817C34.6525 40.4129 34.4896 40.3807 34.3376 40.3179C34.1856 40.2552 34.0474 40.1631 33.931 40.047C33.8145 39.9308 33.7221 39.7929 33.659 39.641C33.5959 39.4891 33.5633 39.3263 33.5631 39.1619C33.5628 38.9974 33.595 38.8345 33.6578 38.6825C33.7205 38.5305 33.8126 38.3923 33.9287 38.2759C34.0449 38.1594 34.1828 38.067 34.3347 38.0039C34.4866 37.9408 34.6494 37.9082 34.8138 37.908H73.2172C73.5493 37.9075 73.868 38.0391 74.1032 38.2737C74.3383 38.5082 74.4707 38.8266 74.4711 39.1587C74.4715 39.4909 74.3399 39.8096 74.1054 40.0448C73.8708 40.2799 73.5524 40.4122 73.2203 40.4127H73.2172Z" fill="#6CC24A"/>
<path d="M73.2172 45.3614H34.817C34.4848 45.3614 34.1663 45.2295 33.9314 44.9946C33.6965 44.7597 33.5646 44.4412 33.5646 44.109C33.5646 43.7768 33.6965 43.4583 33.9314 43.2234C34.1663 42.9885 34.4848 42.8566 34.817 42.8566H73.2172C73.5493 42.8566 73.8679 42.9885 74.1028 43.2234C74.3377 43.4583 74.4696 43.7768 74.4696 44.109C74.4696 44.4412 74.3377 44.7597 74.1028 44.9946C73.8679 45.2295 73.5493 45.3614 73.2172 45.3614Z" fill="#6CC24A"/>
<path d="M51.4626 50.31H34.817C34.4848 50.31 34.1663 50.1781 33.9314 49.9432C33.6965 49.7083 33.5646 49.3898 33.5646 49.0576C33.5646 48.7254 33.6965 48.4069 33.9314 48.172C34.1663 47.9371 34.4848 47.8052 34.817 47.8052H51.4626C51.7947 47.8052 52.1133 47.9371 52.3482 48.172C52.583 48.4069 52.715 48.7254 52.715 49.0576C52.715 49.3898 52.583 49.7083 52.3482 49.9432C52.1133 50.1781 51.7947 50.31 51.4626 50.31Z" fill="#6CC24A"/>
<path d="M73.2172 60.6745H34.817C34.4848 60.6749 34.1661 60.5434 33.931 60.3088C33.6958 60.0742 33.5635 59.7559 33.5631 59.4237C33.5626 59.0916 33.6942 58.7729 33.9287 58.5377C34.1633 58.3026 34.4817 58.1702 34.8138 58.1698H73.2172C73.5493 58.1694 73.868 58.3009 74.1032 58.5355C74.3383 58.7701 74.4707 59.0884 74.4711 59.4206C74.4715 59.7527 74.3399 60.0714 74.1054 60.3066C73.8708 60.5417 73.5524 60.6741 73.2203 60.6745H73.2172Z" fill="#E4E4E4"/>
<path d="M73.2172 65.6231H34.817C34.4848 65.6231 34.1663 65.4912 33.9314 65.2563C33.6965 65.0214 33.5646 64.7029 33.5646 64.3707C33.5646 64.0385 33.6965 63.72 33.9314 63.4851C34.1663 63.2502 34.4848 63.1183 34.817 63.1183H73.2172C73.5493 63.1183 73.8679 63.2502 74.1028 63.4851C74.3377 63.72 74.4696 64.0385 74.4696 64.3707C74.4696 64.7029 74.3377 65.0214 74.1028 65.2563C73.8679 65.4912 73.5493 65.6231 73.2172 65.6231Z" fill="#E4E4E4"/>
<path d="M51.4626 70.5718H34.817C34.4848 70.5718 34.1663 70.4399 33.9314 70.205C33.6965 69.9702 33.5646 69.6516 33.5646 69.3194C33.5646 68.9873 33.6965 68.6687 33.9314 68.4338C34.1663 68.199 34.4848 68.067 34.817 68.067H51.4626C51.7947 68.067 52.1133 68.199 52.3482 68.4338C52.583 68.6687 52.715 68.9873 52.715 69.3194C52.715 69.6516 52.583 69.9702 52.3482 70.205C52.1133 70.4399 51.7947 70.5718 51.4626 70.5718Z" fill="#E4E4E4"/>
<path d="M73.2172 80.9362H34.817C34.4848 80.9366 34.1661 80.8051 33.931 80.5705C33.6958 80.336 33.5635 80.0176 33.5631 79.6854C33.5626 79.3533 33.6942 79.0346 33.9287 78.7994C34.1633 78.5643 34.4817 78.4319 34.8138 78.4315H73.2172C73.5493 78.4311 73.868 78.5626 74.1032 78.7972C74.3383 79.0318 74.4707 79.3502 74.4711 79.6823C74.4715 80.0144 74.3399 80.3331 74.1054 80.5683C73.8708 80.8035 73.5524 80.9358 73.2203 80.9362H73.2172Z" fill="#E4E4E4"/>
<path d="M73.2172 85.885H34.817C34.4848 85.885 34.1663 85.753 33.9314 85.5181C33.6965 85.2833 33.5646 84.9647 33.5646 84.6325C33.5646 84.3004 33.6965 83.9818 33.9314 83.7469C34.1663 83.5121 34.4848 83.3801 34.817 83.3801H73.2172C73.5493 83.3801 73.8679 83.5121 74.1028 83.7469C74.3377 83.9818 74.4696 84.3004 74.4696 84.6325C74.4696 84.9647 74.3377 85.2833 74.1028 85.5181C73.8679 85.753 73.5493 85.885 73.2172 85.885Z" fill="#E4E4E4"/>
<path d="M51.4625 90.8336H34.817C34.4852 90.8329 34.1673 90.7007 33.9329 90.4659C33.6986 90.2311 33.567 89.9129 33.567 89.5812C33.567 89.2494 33.6986 88.9312 33.9329 88.6964C34.1673 88.4616 34.4852 88.3294 34.817 88.3287H51.4625C51.7943 88.3294 52.1122 88.4616 52.3466 88.6964C52.5809 88.9312 52.7126 89.2494 52.7126 89.5812C52.7126 89.9129 52.5809 90.2311 52.3466 90.4659C52.1122 90.7007 51.7943 90.8329 51.4625 90.8336Z" fill="#E4E4E4"/>
<path d="M84.8122 40.9298C93.8041 40.9298 101.093 33.6405 101.093 24.6486C101.093 15.6568 93.8041 8.36743 84.8122 8.36743C75.8204 8.36743 68.531 15.6568 68.531 24.6486C68.531 33.6405 75.8204 40.9298 84.8122 40.9298Z" fill="#6CC24A"/>
<path opacity="0.16" d="M84.8122 38.6745C80.6931 38.6739 76.7274 37.1119 73.7144 34.3033C70.7013 31.4946 68.8651 27.6482 68.5756 23.5393C68.5492 23.9183 68.531 24.2996 68.531 24.6854C68.5326 29.0024 70.2487 33.142 73.3018 36.194C76.355 39.246 80.4952 40.9605 84.8122 40.9605C89.1292 40.9605 93.2694 39.246 96.3226 36.194C99.3757 33.142 101.092 29.0024 101.093 24.6854C101.093 24.2996 101.075 23.9183 101.049 23.5393C100.759 27.6482 98.9231 31.4946 95.91 34.3033C92.897 37.1119 88.9313 38.6739 84.8122 38.6745Z" fill="#231F20"/>
<path d="M84.8123 32.6049C84.2717 32.6043 83.7534 32.3893 83.3712 32.007C82.9889 31.6247 82.7739 31.1065 82.7733 30.5659V18.768C82.773 18.5001 82.8255 18.2347 82.9278 17.9871C83.0302 17.7395 83.1803 17.5144 83.3697 17.3249C83.5591 17.1353 83.7839 16.9849 84.0314 16.8823C84.279 16.7797 84.5443 16.7269 84.8122 16.7269C85.0801 16.7269 85.3455 16.7797 85.593 16.8823C85.8405 16.9849 86.0654 17.1353 86.2547 17.3249C86.4441 17.5144 86.5942 17.7395 86.6966 17.9871C86.7989 18.2347 86.8514 18.5001 86.8512 18.768V30.5659C86.8506 31.1065 86.6356 31.6247 86.2533 32.007C85.8711 32.3892 85.3528 32.6043 84.8123 32.6049Z" fill="white"/>
<path d="M76.8743 24.6671C76.8749 24.1265 77.0899 23.6082 77.4722 23.226C77.8544 22.8437 78.3727 22.6287 78.9133 22.6281H90.7111C90.9791 22.6278 91.2444 22.6803 91.4921 22.7826C91.7397 22.885 91.9647 23.0351 92.1543 23.2245C92.3438 23.4138 92.4942 23.6387 92.5968 23.8862C92.6994 24.1337 92.7522 24.3991 92.7522 24.667C92.7522 24.9349 92.6994 25.2003 92.5968 25.4478C92.4942 25.6953 92.3438 25.9202 92.1543 26.1095C91.9647 26.2989 91.7397 26.449 91.4921 26.5514C91.2444 26.6537 90.9791 26.7062 90.7111 26.706H78.9133C78.3727 26.7054 77.8544 26.4903 77.4722 26.1081C77.0899 25.7259 76.8749 25.2076 76.8743 24.6671Z" fill="white"/>
<path d="M109.287 28.1266L105.822 25.9156L101.27 30.4871L92.6782 38.4809C92.2134 38.3773 91.728 38.4173 91.2864 38.5956C90.8448 38.7739 90.4677 39.0821 90.205 39.4793C89.9423 39.8766 89.8065 40.3442 89.8154 40.8204C89.8242 41.2966 89.9775 41.7588 90.2548 42.146C90.5321 42.5332 90.9204 42.827 91.3684 42.9887C91.8163 43.1504 92.3028 43.1723 92.7635 43.0515C93.2242 42.9307 93.6373 42.6728 93.9483 42.3121C94.2592 41.9514 94.4533 41.5047 94.5049 41.0313L103.981 33.9292L109.287 28.1266Z" fill="#FFB8B8"/>
<path d="M107.197 31.5752L104.688 25.9807L104.742 25.9112C104.777 25.8676 108.238 21.504 111.017 18.9474C111.318 18.6533 111.679 18.4283 112.076 18.2881C112.473 18.148 112.895 18.0961 113.314 18.136C113.903 18.1861 114.464 18.407 114.929 18.7715C115.394 19.1361 115.743 19.6284 115.932 20.1881C116.149 20.7724 116.193 21.4069 116.059 22.0155C115.925 22.6242 115.619 23.1814 115.176 23.6205L107.197 31.5752Z" fill="#6CC24A"/>
<path d="M109.465 13.1866C112.473 13.1866 114.912 10.7481 114.912 7.73992C114.912 4.73179 112.473 2.29321 109.465 2.29321C106.457 2.29321 104.018 4.73179 104.018 7.73992C104.018 10.7481 106.457 13.1866 109.465 13.1866Z" fill="#FFB8B8"/>
<path d="M101.003 104.504H98.7511L97.6794 95.8195H101.003V104.504Z" fill="#FFB8B8"/>
<path d="M102.191 108.406H100.576L100.288 106.881L99.55 108.406H95.2672C95.0619 108.406 94.862 108.34 94.6967 108.219C94.5313 108.097 94.4092 107.926 94.3481 107.73C94.287 107.534 94.2901 107.323 94.3571 107.129C94.424 106.935 94.5512 106.767 94.7202 106.651L98.1402 104.289V102.748L101.738 102.962L102.191 108.406Z" fill="#2F2E41"/>
<path d="M129.224 102.591L127.132 103.424L122.924 95.7514L126.012 94.5222L129.224 102.591Z" fill="#FFB8B8"/>
<path d="M131.771 105.777L130.27 106.374L129.439 105.064L129.317 106.753L125.338 108.337C125.147 108.413 124.937 108.426 124.738 108.374C124.54 108.323 124.363 108.209 124.234 108.049C124.104 107.89 124.029 107.693 124.02 107.488C124.01 107.283 124.067 107.08 124.18 106.909L126.484 103.45L125.914 102.018L129.336 100.887L131.771 105.777Z" fill="#2F2E41"/>
<path d="M101.871 100.515H97.2137L98.5009 78.6325L97.5599 63.8004L97.5619 63.7885L101.071 42.5273C101.348 40.8508 102.094 39.2869 103.223 38.0175L103.266 37.9694L115.011 40.8702L116.192 43.5629C120.224 45.9612 121.498 59.4853 121.55 60.0613L123.257 76.9206L127.433 97.5833L124.492 99.1667L124.443 99.0687L115.159 80.6075L109.296 61.1391L105.541 78.6611L101.871 100.515Z" fill="#2F2E41"/>
<path d="M116.21 7.99629C116.018 6.73025 115.816 5.45361 115.364 4.2615C114.911 3.0694 114.181 1.95281 113.134 1.2775C111.476 0.208317 109.33 0.414526 107.472 1.02955C106.034 1.50519 104.631 2.22811 103.618 3.39033C102.604 4.55255 102.035 6.21092 102.412 7.73057C104.394 7.26218 106.377 6.79378 108.359 6.32538L108.142 6.47873C108.793 6.80332 109.362 7.27194 109.804 7.84902C110.247 8.42611 110.553 9.09648 110.698 9.80927C110.84 10.5307 110.819 11.2747 110.638 11.9873C110.457 12.6999 110.12 13.3634 109.651 13.9297C111.003 13.4501 112.355 12.9704 113.707 12.4908C114.542 12.1948 115.435 11.8536 115.93 11.0943C116.504 10.2139 116.37 9.04696 116.21 7.99629Z" fill="#2F2E41"/>
<path d="M0.285547 108.353H149.714C149.79 108.353 149.863 108.323 149.916 108.27C149.97 108.216 150 108.143 150 108.068C150 107.992 149.97 107.919 149.916 107.866C149.863 107.812 149.79 107.782 149.714 107.782H0.285547C0.209814 107.782 0.137187 107.812 0.0836354 107.866C0.0300841 107.919 0 107.992 0 108.068C0 108.143 0.0300841 108.216 0.0836354 108.27C0.137187 108.323 0.209814 108.353 0.285547 108.353Z" fill="#CCCCCC"/>
</g>
<defs>
<clipPath id="clip0_6165_56258">
<rect width="150" height="108.406" fill="white"/>
</clipPath>
</defs>
</svg>
